<svg width="266" height="94" viewBox="0 0 266 94" fill="none" xmlns="http://www.w3.org/2000/svg">
<rect width="266" height="94" fill="white"/>
<rect width="266" height="94" rx="8" fill="#17C4C4"/>
<path fill-rule="evenodd" clip-rule="evenodd" d="M30.5898 42.4748L50.0581 42.4746C54.9151 42.4746 58.9469 46.0071 59.7246 50.6431L40.2562 50.6429C35.3994 50.6429 31.3677 47.1106 30.5898 42.4748Z" fill="white"/>
<path fill-rule="evenodd" clip-rule="evenodd" d="M30.5898 62.0784L50.0581 62.0786C54.9151 62.0786 58.9469 58.5461 59.7246 53.9102L40.2562 53.9104C35.3994 53.9104 31.3677 57.4427 30.5898 62.0784Z" fill="white"/>
<path fill-rule="evenodd" clip-rule="evenodd" d="M30.5898 39.2073L50.0581 39.2075C54.9151 39.2075 58.9469 35.675 59.7246 31.0391L40.2562 31.0393C35.3994 31.0393 31.3677 34.5716 30.5898 39.2073Z" fill="white"/>
<path fill-rule="evenodd" clip-rule="evenodd" d="M229.223 44.8628C228.269 44.8628 227.467 45.1326 226.818 45.6723C226.17 46.2122 225.774 46.95 225.63 47.8856H232.79C232.646 46.968 232.249 46.2346 231.601 45.686C230.952 45.1372 230.16 44.8628 229.223 44.8628ZM229.196 41.678C230.619 41.678 231.907 41.984 233.06 42.5956C234.213 43.2075 235.118 44.0846 235.775 45.227C236.433 46.3696 236.762 47.6966 236.762 49.208C236.762 49.2619 236.735 49.6398 236.68 50.3415H225.684L225.708 50.4444C225.918 51.2954 226.378 51.972 227.088 52.4736C227.827 52.9955 228.746 53.2564 229.844 53.2564C230.601 53.2564 231.272 53.1437 231.857 52.9189C232.443 52.6941 232.988 52.3386 233.492 51.8529L235.735 54.2818L235.657 54.3697C234.29 55.8765 232.317 56.6299 229.737 56.6299C228.097 56.6299 226.647 56.3105 225.386 55.6719C224.125 55.033 223.153 54.147 222.468 53.0136C221.784 51.8798 221.441 50.5935 221.441 49.1541C221.441 47.7325 221.779 46.4505 222.455 45.3081C223.13 44.1655 224.058 43.2749 225.238 42.636C226.418 41.9975 227.737 41.678 229.196 41.678ZM215.538 38.7946V42.3304H219.131C219.131 44.4895 217.933 45.569 215.538 45.569V51.4795C215.538 52.0914 215.691 52.5637 215.997 52.8966C216.303 53.2295 216.744 53.3958 217.321 53.3958C217.969 53.3958 218.546 53.2157 219.05 52.8559L220.158 55.8247C219.744 56.1307 219.235 56.3601 218.632 56.5129C218.028 56.666 217.402 56.7426 216.754 56.7426C215.006 56.7426 213.664 56.3016 212.728 55.4199C211.791 54.5384 211.323 53.2429 211.323 51.5334V38.7946H215.538ZM203.271 56.5266H207.486V42.0064H203.271V56.5266ZM205.378 39.9823C206.153 39.9823 206.783 39.7529 207.27 39.2941C207.756 38.8351 207.999 38.255 207.999 37.5533C207.999 36.9056 207.756 36.3657 207.27 35.9339C206.783 35.502 206.153 35.2861 205.378 35.2861C204.604 35.2861 203.973 35.5109 203.487 35.9608C203 36.4107 202.757 36.9684 202.757 37.6342C202.757 38.3 203 38.8577 203.487 39.3076C203.973 39.7572 204.604 39.9823 205.378 39.9823ZM190.842 56.7426C191.742 56.7426 192.58 56.576 193.354 56.2431C194.129 55.9102 194.796 55.429 195.354 54.7991V56.5266H199.353V42.0064H195.138V49.1854C195.138 50.4808 194.831 51.4572 194.219 52.1138C193.607 52.7704 192.796 53.099 191.787 53.099C189.824 53.099 188.842 51.9294 188.842 49.5902V42.0064H184.627V50.211C184.627 52.3701 185.186 53.9985 186.302 55.0961C187.419 56.1937 188.932 56.7426 190.842 56.7426ZM173.981 56.8504C175.711 56.8504 177.179 56.5894 178.386 56.0676C179.592 55.546 180.498 54.8398 181.101 53.9492C181.704 53.0583 182.006 52.0734 182.006 50.9938C182.006 49.7342 181.677 48.7357 181.02 47.998C180.363 47.2602 179.574 46.7206 178.656 46.3785C177.737 46.0367 176.557 45.6949 175.116 45.3531C173.729 45.0472 172.698 44.7367 172.022 44.4218C171.347 44.107 171.009 43.6258 171.009 42.9781C171.009 42.3304 171.302 41.8085 171.887 41.4125C172.473 41.0168 173.378 40.819 174.603 40.819C176.35 40.819 178.097 41.3136 179.845 42.3034L181.196 38.9836C180.331 38.4439 179.322 38.0299 178.169 37.742C177.017 37.4541 175.837 37.3102 174.63 37.3102C172.901 37.3102 171.437 37.5711 170.239 38.093C169.041 38.6148 168.145 39.3211 167.551 40.2117C166.956 41.1023 166.659 42.0964 166.659 43.194C166.659 44.4534 166.988 45.4609 167.645 46.2168C168.303 46.9723 169.091 47.5211 170.01 47.8629C170.928 48.205 172.108 48.5468 173.549 48.8886C174.486 49.1045 175.229 49.3024 175.778 49.4824C176.328 49.6622 176.778 49.9008 177.129 50.1975C177.48 50.4946 177.656 50.8679 177.656 51.3175C177.656 51.9294 177.359 52.4197 176.764 52.7885C176.17 53.1575 175.251 53.3419 174.008 53.3419C172.892 53.3419 171.775 53.1618 170.658 52.802C169.541 52.4421 168.577 51.9653 167.767 51.3717L166.281 54.6643C167.127 55.312 168.249 55.8382 169.645 56.2431C171.041 56.6479 172.486 56.8504 173.981 56.8504ZM161.687 56.7426C162.336 56.7426 162.962 56.666 163.565 56.5129C164.169 56.3601 164.678 56.1307 165.092 55.8247L163.984 52.8559C163.48 53.2157 162.903 53.3958 162.255 53.3958C161.678 53.3958 161.237 53.2295 160.931 52.8966C160.625 52.5637 160.472 52.0914 160.472 51.4795V45.569C162.867 45.569 164.065 44.4895 164.065 42.3304H160.472V38.7946H156.256V51.5334C156.256 53.2429 156.725 54.5384 157.661 55.4199C158.598 56.3016 159.94 56.7426 161.687 56.7426ZM148.907 56.5266V49.6714C148.907 48.3217 149.249 47.3098 149.934 46.6351C150.618 45.9602 151.564 45.623 152.771 45.623C152.933 45.623 153.248 45.641 153.717 45.6769V41.7904C152.6 41.7904 151.614 41.9705 150.758 42.3304C149.902 42.6902 149.222 43.221 148.718 43.9226V42.0064H144.692V56.5266H148.907ZM132.965 53.2877C131.885 53.2877 130.993 52.9235 130.291 52.1947C129.588 51.4661 129.237 50.49 129.237 49.2665C129.237 48.043 129.588 47.0669 130.291 46.3381C130.993 45.6095 131.885 45.245 132.965 45.245C134.028 45.245 134.911 45.6095 135.613 46.3381C136.316 47.0669 136.667 48.043 136.667 49.2665C136.667 50.49 136.316 51.4661 135.613 52.1947C134.911 52.9235 134.028 53.2877 132.965 53.2877ZM132.236 56.7426C134.218 56.7426 135.731 56.1126 136.775 54.8533V56.5266H140.801V42.0064H136.586V43.5447C135.541 42.3754 134.091 41.7904 132.236 41.7904C130.867 41.7904 129.629 42.0964 128.521 42.708C127.413 43.3199 126.544 44.1924 125.913 45.3262C125.283 46.4596 124.968 47.7732 124.968 49.2665C124.968 50.7598 125.283 52.0734 125.913 53.2068C126.544 54.3403 127.413 55.2131 128.521 55.8247C129.629 56.4366 130.867 56.7426 132.236 56.7426ZM101.92 56.5266V49.2395C101.92 47.9799 102.208 47.0308 102.785 46.3923C103.361 45.7534 104.136 45.434 105.108 45.434C106.945 45.434 107.864 46.5766 107.864 48.8616V56.5266H112.079V49.2395C112.079 47.9799 112.367 47.0308 112.944 46.3923C113.52 45.7534 114.304 45.434 115.295 45.434C116.177 45.434 116.857 45.7173 117.335 46.2842C117.812 46.851 118.051 47.7101 118.051 48.8616V56.5266H122.266V48.2139C122.266 46.0728 121.73 44.4668 120.658 43.3964C119.586 42.3258 118.141 41.7904 116.321 41.7904C115.241 41.7904 114.245 41.9975 113.336 42.4112C112.426 42.825 111.674 43.4099 111.079 44.1655C110.575 43.3919 109.909 42.8026 109.08 42.3977C108.251 41.9929 107.324 41.7904 106.297 41.7904C103.546 41.7904 101.696 42.2568 100.312 43.1943C98.9278 44.1318 97.7049 45.9558 97.7049 48.205V56.5266H101.92ZM86.9779 56.8504C88.7073 56.8504 90.1753 56.5894 91.3821 56.0676C92.5891 55.546 93.4941 54.8398 94.0976 53.9492C94.7011 53.0583 95.0029 52.0734 95.0029 50.9938C95.0029 49.7342 94.6741 48.7357 94.0167 47.998C93.3592 47.2602 92.571 46.7206 91.6523 46.3785C90.7338 46.0367 89.5537 45.6949 88.1129 45.3531C86.7258 45.0472 85.6946 44.7367 85.019 44.4218C84.3435 44.107 84.0059 43.6258 84.0059 42.9781C84.0059 42.3304 84.2985 41.8085 84.8839 41.4125C85.4694 41.0168 86.3744 40.819 87.5995 40.819C89.3466 40.819 91.0941 41.3136 92.8412 42.3034L94.1922 38.9836C93.3277 38.4439 92.3189 38.0299 91.1661 37.742C90.0132 37.4541 88.8332 37.3102 87.6264 37.3102C85.8971 37.3102 84.4336 37.5711 83.2358 38.093C82.0379 38.6148 81.1418 39.3211 80.5472 40.2117C79.9529 41.1023 79.6557 42.0964 79.6557 43.194C79.6557 44.4534 79.9844 45.4609 80.6418 46.2168C81.2993 46.9723 82.0875 47.5211 83.006 47.8629C83.9247 48.205 85.1045 48.5468 86.5456 48.8886C87.4824 49.1045 88.2254 49.3024 88.7747 49.4824C89.3242 49.6622 89.7746 49.9008 90.1257 50.1975C90.4771 50.4946 90.6526 50.8679 90.6526 51.3175C90.6526 51.9294 90.3554 52.4197 89.7611 52.7885C89.1665 53.1575 88.248 53.3419 87.0049 53.3419C85.8882 53.3419 84.7712 53.1618 83.6545 52.802C82.5376 52.4421 81.5741 51.9653 80.7635 51.3717L79.2773 54.6643C80.1241 55.312 81.2454 55.8382 82.6414 56.2431C84.0372 56.6479 85.4829 56.8504 86.9779 56.8504Z" fill="white"/>
</svg>
