<svg width="266" height="94" viewBox="0 0 266 94" fill="none" xmlns="http://www.w3.org/2000/svg">
<g clip-path="url(#clip0_4629:201679)">
<rect width="266" height="94" fill="white"/>
<rect x="0.183594" width="266" height="31" fill="#C4C4C4" fill-opacity="0.15"/>
<rect width="30" height="94" fill="#C4C4C4" fill-opacity="0.15"/>
<rect x="236" width="30" height="94" fill="#C4C4C4" fill-opacity="0.15"/>
<rect x="0.183594" y="63" width="266" height="31" fill="#C4C4C4" fill-opacity="0.15"/>
<g opacity="0.3">
<path fill-rule="evenodd" clip-rule="evenodd" d="M1.35156 11.4358L20.8199 11.4355C25.6768 11.4355 29.7086 14.9681 30.4863 19.604L11.0179 19.6038C6.16115 19.6038 2.1294 16.0715 1.35156 11.4358Z" fill="#B2B2B3"/>
<path fill-rule="evenodd" clip-rule="evenodd" d="M1.35156 31.0394L20.8199 31.0396C25.6768 31.0396 29.7086 27.507 30.4863 22.8711L11.0179 22.8713C6.16115 22.8713 2.1294 26.4036 1.35156 31.0394Z" fill="#B2B2B3"/>
<path fill-rule="evenodd" clip-rule="evenodd" d="M1.35156 8.16826L20.8199 8.16848C25.6768 8.16848 29.7086 4.63594 30.4863 0L11.0179 0.000203033C6.16115 0.000203033 2.1294 3.53252 1.35156 8.16826Z" fill="#B2B2B3"/>
</g>
<g opacity="0.3">
<path fill-rule="evenodd" clip-rule="evenodd" d="M1.35156 74.4358L20.8199 74.4355C25.6768 74.4355 29.7086 77.9681 30.4863 82.604L11.0179 82.6038C6.16115 82.6038 2.1294 79.0715 1.35156 74.4358Z" fill="#B2B2B3"/>
<path fill-rule="evenodd" clip-rule="evenodd" d="M1.35156 94.0394L20.8199 94.0396C25.6768 94.0396 29.7086 90.507 30.4863 85.8711L11.0179 85.8713C6.16115 85.8713 2.1294 89.4036 1.35156 94.0394Z" fill="#B2B2B3"/>
<path fill-rule="evenodd" clip-rule="evenodd" d="M1.35156 71.1683L20.8199 71.1685C25.6768 71.1685 29.7086 67.6359 30.4863 63L11.0179 63.0002C6.16115 63.0002 2.1294 66.5325 1.35156 71.1683Z" fill="#B2B2B3"/>
</g>
<g opacity="0.3">
<path fill-rule="evenodd" clip-rule="evenodd" d="M237.352 11.4358L256.82 11.4355C261.677 11.4355 265.709 14.9681 266.486 19.604L247.018 19.6038C242.161 19.6038 238.129 16.0715 237.352 11.4358Z" fill="#B2B2B3"/>
<path fill-rule="evenodd" clip-rule="evenodd" d="M237.352 31.0394L256.82 31.0396C261.677 31.0396 265.709 27.507 266.486 22.8711L247.018 22.8713C242.161 22.8713 238.129 26.4036 237.352 31.0394Z" fill="#B2B2B3"/>
<path fill-rule="evenodd" clip-rule="evenodd" d="M237.352 8.16826L256.82 8.16848C261.677 8.16848 265.709 4.63594 266.486 0L247.018 0.000203033C242.161 0.000203033 238.129 3.53252 237.352 8.16826Z" fill="#B2B2B3"/>
</g>
<g opacity="0.3">
<path fill-rule="evenodd" clip-rule="evenodd" d="M237.352 74.4358L256.82 74.4355C261.677 74.4355 265.709 77.9681 266.486 82.604L247.018 82.6038C242.161 82.6038 238.129 79.0715 237.352 74.4358Z" fill="#B2B2B3"/>
<path fill-rule="evenodd" clip-rule="evenodd" d="M237.352 94.0394L256.82 94.0396C261.677 94.0396 265.709 90.507 266.486 85.8711L247.018 85.8713C242.161 85.8713 238.129 89.4036 237.352 94.0394Z" fill="#B2B2B3"/>
<path fill-rule="evenodd" clip-rule="evenodd" d="M237.352 71.1683L256.82 71.1685C261.677 71.1685 265.709 67.6359 266.486 63L247.018 63.0002C242.161 63.0002 238.129 66.5325 237.352 71.1683Z" fill="#B2B2B3"/>
</g>
<path fill-rule="evenodd" clip-rule="evenodd" d="M30.832 42.4748L50.3003 42.4746C55.1572 42.4746 59.1891 46.0071 59.9668 50.6431L40.4984 50.6429C35.6416 50.6429 31.6099 47.1106 30.832 42.4748Z" fill="#FF5757"/>
<path fill-rule="evenodd" clip-rule="evenodd" d="M30.832 62.0784L50.3003 62.0786C55.1572 62.0786 59.1891 58.5461 59.9668 53.9102L40.4984 53.9104C35.6416 53.9104 31.6099 57.4427 30.832 62.0784Z" fill="#3A86FF"/>
<path fill-rule="evenodd" clip-rule="evenodd" d="M30.832 39.2073L50.3003 39.2075C55.1572 39.2075 59.1891 35.675 59.9668 31.0391L40.4984 31.0393C35.6416 31.0393 31.6099 34.5716 30.832 39.2073Z" fill="#FFB938"/>
<path fill-rule="evenodd" clip-rule="evenodd" d="M229.465 44.8628C228.511 44.8628 227.709 45.1326 227.06 45.6723C226.412 46.2122 226.016 46.95 225.872 47.8856H233.032C232.888 46.968 232.492 46.2346 231.843 45.686C231.195 45.1372 230.402 44.8628 229.465 44.8628ZM229.438 41.678C230.861 41.678 232.149 41.984 233.302 42.5956C234.455 43.2075 235.36 44.0846 236.018 45.227C236.675 46.3696 237.004 47.6966 237.004 49.208C237.004 49.2619 236.977 49.6398 236.923 50.3415H225.926L225.95 50.4444C226.16 51.2954 226.621 51.972 227.331 52.4736C228.069 52.9955 228.988 53.2564 230.087 53.2564C230.843 53.2564 231.514 53.1437 232.1 52.9189C232.685 52.6941 233.23 52.3386 233.734 51.8529L235.977 54.2818L235.899 54.3697C234.532 55.8765 232.559 56.6299 229.979 56.6299C228.339 56.6299 226.889 56.3105 225.629 55.6719C224.368 55.033 223.395 54.147 222.71 53.0136C222.026 51.8798 221.684 50.5935 221.684 49.1541C221.684 47.7325 222.021 46.4505 222.697 45.3081C223.372 44.1655 224.3 43.2749 225.48 42.636C226.66 41.9975 227.979 41.678 229.438 41.678ZM215.78 38.7946V42.3304H219.373C219.373 44.4895 218.176 45.569 215.78 45.569V51.4795C215.78 52.0914 215.933 52.5637 216.239 52.8966C216.545 53.2295 216.987 53.3958 217.563 53.3958C218.212 53.3958 218.788 53.2157 219.292 52.8559L220.4 55.8247C219.986 56.1307 219.477 56.3601 218.874 56.5129C218.27 56.666 217.644 56.7426 216.996 56.7426C215.248 56.7426 213.906 56.3016 212.97 55.4199C212.033 54.5384 211.565 53.2429 211.565 51.5334V38.7946H215.78ZM203.513 56.5266H207.728V42.0064H203.513V56.5266ZM205.62 39.9823C206.395 39.9823 207.025 39.7529 207.512 39.2941C207.998 38.8351 208.241 38.255 208.241 37.5533C208.241 36.9056 207.998 36.3657 207.512 35.9339C207.025 35.502 206.395 35.2861 205.62 35.2861C204.846 35.2861 204.216 35.5109 203.729 35.9608C203.243 36.4107 203 36.9684 203 37.6342C203 38.3 203.243 38.8577 203.729 39.3076C204.216 39.7572 204.846 39.9823 205.62 39.9823ZM191.084 56.7426C191.985 56.7426 192.822 56.576 193.597 56.2431C194.371 55.9102 195.038 55.429 195.596 54.7991V56.5266H199.595V42.0064H195.38V49.1854C195.38 50.4808 195.074 51.4572 194.461 52.1138C193.849 52.7704 193.038 53.099 192.03 53.099C190.066 53.099 189.084 51.9294 189.084 49.5902V42.0064H184.869V50.211C184.869 52.3701 185.428 53.9985 186.545 55.0961C187.661 56.1937 189.174 56.7426 191.084 56.7426ZM174.224 56.8504C175.953 56.8504 177.421 56.5894 178.628 56.0676C179.835 55.546 180.74 54.8398 181.343 53.9492C181.947 53.0583 182.248 52.0734 182.248 50.9938C182.248 49.7342 181.92 48.7357 181.262 47.998C180.605 47.2602 179.817 46.7206 178.898 46.3785C177.979 46.0367 176.8 45.6949 175.358 45.3531C173.971 45.0472 172.94 44.7367 172.265 44.4218C171.589 44.107 171.251 43.6258 171.251 42.9781C171.251 42.3304 171.544 41.8085 172.129 41.4125C172.715 41.0168 173.62 40.819 174.845 40.819C176.592 40.819 178.34 41.3136 180.087 42.3034L181.438 38.9836C180.573 38.4439 179.564 38.0299 178.412 37.742C177.259 37.4541 176.079 37.3102 174.872 37.3102C173.143 37.3102 171.679 37.5711 170.481 38.093C169.283 38.6148 168.387 39.3211 167.793 40.2117C167.198 41.1023 166.901 42.0964 166.901 43.194C166.901 44.4534 167.23 45.4609 167.887 46.2168C168.545 46.9723 169.333 47.5211 170.252 47.8629C171.17 48.205 172.35 48.5468 173.791 48.8886C174.728 49.1045 175.471 49.3024 176.02 49.4824C176.57 49.6622 177.02 49.9008 177.371 50.1975C177.723 50.4946 177.898 50.8679 177.898 51.3175C177.898 51.9294 177.601 52.4197 177.007 52.7885C176.412 53.1575 175.494 53.3419 174.251 53.3419C173.134 53.3419 172.017 53.1618 170.9 52.802C169.783 52.4421 168.82 51.9653 168.009 51.3717L166.523 54.6643C167.37 55.312 168.491 55.8382 169.887 56.2431C171.283 56.6479 172.728 56.8504 174.224 56.8504ZM161.93 56.7426C162.578 56.7426 163.204 56.666 163.807 56.5129C164.411 56.3601 164.92 56.1307 165.334 55.8247L164.226 52.8559C163.722 53.2157 163.146 53.3958 162.497 53.3958C161.92 53.3958 161.479 53.2295 161.173 52.8966C160.867 52.5637 160.714 52.0914 160.714 51.4795V45.569C163.109 45.569 164.307 44.4895 164.307 42.3304H160.714V38.7946H156.499V51.5334C156.499 53.2429 156.967 54.5384 157.904 55.4199C158.84 56.3016 160.182 56.7426 161.93 56.7426ZM149.149 56.5266V49.6714C149.149 48.3217 149.492 47.3098 150.176 46.6351C150.86 45.9602 151.806 45.623 153.013 45.623C153.175 45.623 153.49 45.641 153.959 45.6769V41.7904C152.842 41.7904 151.856 41.9705 151 42.3304C150.144 42.6902 149.464 43.221 148.96 43.9226V42.0064H144.934V56.5266H149.149ZM133.208 53.2877C132.127 53.2877 131.235 52.9235 130.533 52.1947C129.83 51.4661 129.479 50.49 129.479 49.2665C129.479 48.043 129.83 47.0669 130.533 46.3381C131.235 45.6095 132.127 45.245 133.208 45.245C134.27 45.245 135.153 45.6095 135.855 46.3381C136.558 47.0669 136.909 48.043 136.909 49.2665C136.909 50.49 136.558 51.4661 135.855 52.1947C135.153 52.9235 134.27 53.2877 133.208 53.2877ZM132.478 56.7426C134.46 56.7426 135.973 56.1126 137.017 54.8533V56.5266H141.043V42.0064H136.828V43.5447C135.783 42.3754 134.333 41.7904 132.478 41.7904C131.109 41.7904 129.871 42.0964 128.763 42.708C127.655 43.3199 126.786 44.1924 126.156 45.3262C125.525 46.4596 125.21 47.7732 125.21 49.2665C125.21 50.7598 125.525 52.0734 126.156 53.2068C126.786 54.3403 127.655 55.2131 128.763 55.8247C129.871 56.4366 131.109 56.7426 132.478 56.7426ZM102.162 56.5266V49.2395C102.162 47.9799 102.45 47.0308 103.027 46.3923C103.603 45.7534 104.378 45.434 105.35 45.434C107.188 45.434 108.106 46.5766 108.106 48.8616V56.5266H112.322V49.2395C112.322 47.9799 112.61 47.0308 113.186 46.3923C113.762 45.7534 114.546 45.434 115.537 45.434C116.419 45.434 117.099 45.7173 117.577 46.2842C118.054 46.851 118.293 47.7101 118.293 48.8616V56.5266H122.508V48.2139C122.508 46.0728 121.972 44.4668 120.9 43.3964C119.828 42.3258 118.383 41.7904 116.564 41.7904C115.483 41.7904 114.488 41.9975 113.578 42.4112C112.668 42.825 111.916 43.4099 111.322 44.1655C110.817 43.3919 110.151 42.8026 109.322 42.3977C108.494 41.9929 107.566 41.7904 106.539 41.7904C103.788 41.7904 101.938 42.2568 100.554 43.1943C99.17 44.1318 97.9471 45.9558 97.9471 48.205V56.5266H102.162ZM87.2201 56.8504C88.9494 56.8504 90.4175 56.5894 91.6242 56.0676C92.8313 55.546 93.7363 54.8398 94.3398 53.9492C94.9433 53.0583 95.245 52.0734 95.245 50.9938C95.245 49.7342 94.9163 48.7357 94.2589 47.998C93.6014 47.2602 92.8132 46.7206 91.8945 46.3785C90.976 46.0367 89.7959 45.6949 88.3551 45.3531C86.9679 45.0472 85.9367 44.7367 85.2612 44.4218C84.5857 44.107 84.2481 43.6258 84.2481 42.9781C84.2481 42.3304 84.5407 41.8085 85.1261 41.4125C85.7116 41.0168 86.6166 40.819 87.8417 40.819C89.5888 40.819 91.3362 41.3136 93.0834 42.3034L94.4344 38.9836C93.5699 38.4439 92.5611 38.0299 91.4082 37.742C90.2554 37.4541 89.0754 37.3102 87.8686 37.3102C86.1393 37.3102 84.6758 37.5711 83.4779 38.093C82.2801 38.6148 81.384 39.3211 80.7894 40.2117C80.195 41.1023 79.8979 42.0964 79.8979 43.194C79.8979 44.4534 80.2266 45.4609 80.884 46.2168C81.5415 46.9723 82.3297 47.5211 83.2482 47.8629C84.1669 48.205 85.3467 48.5468 86.7878 48.8886C87.7246 49.1045 88.4676 49.3024 89.0169 49.4824C89.5664 49.6622 90.0168 49.9008 90.3679 50.1975C90.7193 50.4946 90.8948 50.8679 90.8948 51.3175C90.8948 51.9294 90.5976 52.4197 90.0033 52.7885C89.4087 53.1575 88.4902 53.3419 87.247 53.3419C86.1304 53.3419 85.0134 53.1618 83.8967 52.802C82.7798 52.4421 81.8163 51.9653 81.0057 51.3717L79.5195 54.6643C80.3663 55.312 81.4875 55.8382 82.8836 56.2431C84.2794 56.6479 85.7251 56.8504 87.2201 56.8504Z" fill="#383C57"/>
</g>
<defs>
<clipPath id="clip0_4629:201679">
<rect width="266" height="94" fill="white"/>
</clipPath>
</defs>
</svg>
