<svg width="1440" height="902" viewBox="0 0 1440 902" fill="none" xmlns="http://www.w3.org/2000/svg">
<mask id="mask0_2229_16410" style="mask-type:alpha" maskUnits="userSpaceOnUse" x="0" y="0" width="1440" height="902">
<rect width="1440" height="902" transform="matrix(1 0 0 -1 0 902)" fill="#C4C4C4"/>
</mask>
<g mask="url(#mask0_2229_16410)">
<path d="M0 -52.9624H1440V432.515L513.013 812.579C481.887 825.34 447.53 827.967 414.825 820.084L0 720.096L0 -52.9624Z" fill="url(#paint0_linear_2229_16410)"/>
<g opacity="0.7">
<rect width="442.546" height="319.538" rx="30" transform="matrix(0.866179 0.499734 -0.866179 0.499734 61.2305 479.473)" fill="url(#paint1_linear_2229_16410)"/>
<rect opacity="0.6" width="442.546" height="319.538" rx="30" transform="matrix(0.866179 0.499734 -0.866179 0.499734 53.7773 354.748)" fill="url(#paint2_linear_2229_16410)"/>
</g>
<g opacity="0.7">
<rect width="442.546" height="319.538" rx="30" transform="matrix(0.866179 0.499734 -0.866179 0.499734 1273.96 -47.7212)" fill="url(#paint3_linear_2229_16410)"/>
<rect opacity="0.6" width="442.546" height="319.538" rx="30" transform="matrix(0.866179 0.499734 -0.866179 0.499734 1266.5 -172.446)" fill="url(#paint4_linear_2229_16410)"/>
</g>
</g>
<defs>
<linearGradient id="paint0_linear_2229_16410" x1="0" y1="-52.9624" x2="1095.7" y2="1006.59" gradientUnits="userSpaceOnUse">
<stop stop-color="#2969E6"/>
<stop offset="1" stop-color="#1C2ED0"/>
</linearGradient>
<linearGradient id="paint1_linear_2229_16410" x1="123.408" y1="322.412" x2="105.633" y2="0.692505" gradientUnits="userSpaceOnUse">
<stop stop-color="white" stop-opacity="0.22"/>
<stop offset="1" stop-color="white" stop-opacity="0.09"/>
</linearGradient>
<linearGradient id="paint2_linear_2229_16410" x1="123.408" y1="322.412" x2="105.633" y2="0.692505" gradientUnits="userSpaceOnUse">
<stop stop-color="white" stop-opacity="0.22"/>
<stop offset="1" stop-color="white" stop-opacity="0.09"/>
</linearGradient>
<linearGradient id="paint3_linear_2229_16410" x1="123.408" y1="322.412" x2="105.633" y2="0.692505" gradientUnits="userSpaceOnUse">
<stop stop-color="white" stop-opacity="0.22"/>
<stop offset="1" stop-color="white" stop-opacity="0.09"/>
</linearGradient>
<linearGradient id="paint4_linear_2229_16410" x1="123.408" y1="322.412" x2="105.633" y2="0.692505" gradientUnits="userSpaceOnUse">
<stop stop-color="white" stop-opacity="0.22"/>
<stop offset="1" stop-color="white" stop-opacity="0.09"/>
</linearGradient>
</defs>
</svg>
