<svg xmlns="http://www.w3.org/2000/svg" width="865.76" height="682.89" viewBox="0 0 865.76 682.89"><rect x="409.55" y="18.45" width="343" height="646" rx="29.62" fill="#2f2e41"/><path d="M733.55,59.91V625a21.46,21.46,0,0,1-21.47,21.46H447A21.46,21.46,0,0,1,425.55,625V59.91A21.46,21.46,0,0,1,447,38.45h57.5s6,0,5,10c0,0-2,9,9,9h125.5s7.07,0,7.28-9.5a15.76,15.76,0,0,1,.18-5.25,5.46,5.46,0,0,1,5.36-4.25h55.21A21.46,21.46,0,0,1,733.55,59.91Z" fill="#ebebeb"/><rect x="562.55" y="40.45" width="37" height="5" rx="2.5" opacity="0.2"/><path d="M733.55,59.91v95.54h-308V59.91A21.46,21.46,0,0,1,447,38.45h57.5s6,0,5,10c0,0-2,9,9,9h125.5s7.07,0,7.28-9.5a15.76,15.76,0,0,1,.18-5.25,5.46,5.46,0,0,1,5.36-4.25h55.21A21.46,21.46,0,0,1,733.55,59.91Z" fill="#0071f2"/><polyline points="449.55 86.45 443.55 92.45 449.55 98.49" fill="none" stroke="#fff" stroke-linecap="round" stroke-linejoin="round"/><circle cx="448.55" cy="51.45" r="2" fill="#fff"/><circle cx="455.55" cy="51.45" r="2" fill="#fff"/><circle cx="461.55" cy="51.45" r="2" fill="#fff"/><circle cx="467.55" cy="51.45" r="2" fill="#fff"/><circle cx="474.55" cy="51.45" r="2" fill="#fff"/><circle cx="716.55" cy="89.07" r="1.5" fill="#fff"/><circle cx="716.55" cy="93.57" r="1.5" fill="#fff"/><circle cx="716.55" cy="98.82" r="1.5" fill="#fff"/><path d="M484.55,50.45a7.63,7.63,0,0,1,10.68,0" fill="none" stroke="#fff" stroke-linecap="round" stroke-linejoin="round"/><path d="M486.55,51.45a5.64,5.64,0,0,1,6,0" fill="none" stroke="#fff" stroke-linecap="round" stroke-linejoin="round"/><circle cx="489.55" cy="53.45" r="1" fill="#fff"/><rect x="694.55" y="48.45" width="12" height="7" fill="#2f2e41"/><rect x="382.55" y="180.45" width="390" height="103" fill="#0071f2"/><rect x="452.55" y="289.95" width="166" height="1" fill="#e6e7e8"/><rect x="453.05" y="285.95" width="166" height="1" fill="#e6e7e8"/><path d="M469.55,328a9.5,9.5,0,1,1-9.5-9.5A9.44,9.44,0,0,1,469.55,328Z" fill="#0071f2"/><path d="M466.46,335a9.49,9.49,0,0,1-12.78.05,6.47,6.47,0,0,1,4.34-5.21,3.25,3.25,0,0,1-1.07-1.22,3.49,3.49,0,1,1,5.14,1.2A6.43,6.43,0,0,1,466.46,335Z" fill="#fff"/><rect x="477.55" y="320.45" width="58" height="7" fill="#0071f2"/><rect x="477.55" y="330.45" width="48" height="4" fill="#2f2e41"/><rect x="452.55" y="348.83" width="186" height="1" fill="#e6e7e8"/><rect x="452.55" y="352.95" width="152" height="1" fill="#e6e7e8"/><path d="M472.55,429a9.5,9.5,0,1,1-9.5-9.5A9.44,9.44,0,0,1,472.55,429Z" fill="#0071f2"/><path d="M469.46,436a9.49,9.49,0,0,1-12.78.05,6.47,6.47,0,0,1,4.34-5.21,3.25,3.25,0,0,1-1.07-1.22,3.49,3.49,0,1,1,5.14,1.2A6.43,6.43,0,0,1,469.46,436Z" fill="#fff"/><rect x="480.55" y="421.45" width="58" height="7" fill="#0071f2"/><rect x="480.55" y="431.45" width="48" height="4" fill="#2f2e41"/><rect x="455.55" y="449.83" width="186" height="1" fill="#e6e7e8"/><rect x="455.55" y="454.95" width="152" height="1" fill="#e6e7e8"/><rect x="456.05" y="461.95" width="163" height="1" fill="#e6e7e8"/><path d="M473.55,499a9.5,9.5,0,1,1-9.5-9.5A9.44,9.44,0,0,1,473.55,499Z" fill="#0071f2"/><path d="M470.46,506a9.49,9.49,0,0,1-12.78.05,6.47,6.47,0,0,1,4.34-5.21,3.25,3.25,0,0,1-1.07-1.22,3.49,3.49,0,1,1,5.14,1.2A6.43,6.43,0,0,1,470.46,506Z" fill="#fff"/><rect x="481.55" y="491.45" width="58" height="7" fill="#0071f2"/><rect x="481.55" y="501.45" width="48" height="4" fill="#2f2e41"/><rect x="456.55" y="519.83" width="186" height="1" fill="#e6e7e8"/><rect x="456.55" y="524.95" width="152" height="1" fill="#e6e7e8"/><path d="M473.55,567a9.5,9.5,0,1,1-9.5-9.5A9.44,9.44,0,0,1,473.55,567Z" fill="#0071f2"/><path d="M470.46,574a9.49,9.49,0,0,1-12.78,0,6.47,6.47,0,0,1,4.34-5.21,3.25,3.25,0,0,1-1.07-1.22,3.49,3.49,0,1,1,5.14,1.2A6.43,6.43,0,0,1,470.46,574Z" fill="#fff"/><rect x="481.55" y="559.45" width="58" height="7" fill="#0071f2"/><rect x="481.55" y="569.45" width="48" height="4" fill="#2f2e41"/><rect x="514.05" y="587.83" width="128.5" height="1" fill="#e6e7e8"/><rect x="514.05" y="592.95" width="105.01" height="1" fill="#e6e7e8"/><rect x="512.55" y="381.45" width="111" height="16" fill="#0071f2"/><rect x="632.55" y="381.45" width="16" height="16" fill="#2f2e41"/><rect x="453.55" y="587.45" width="51" height="38" fill="#0071f2"/><polygon points="453.55 618.07 468.55 603.45 483.32 618.07 504.55 618.07 504.55 625.45 453.55 625.45 453.55 618.07" opacity="0.2"/><polygon points="474.94 609.78 486.55 597.45 504.55 618.07 483.32 618.07 474.94 609.78" fill="#fff" opacity="0.4"/><circle cx="463.55" cy="596.45" r="4" opacity="0.2"/><path d="M487.26,216.45H477.08a.53.53,0,0,1-.53-.54v-2.79a2.68,2.68,0,0,0-2.68-2.67H452.22a2.67,2.67,0,0,0-2.67,2.67v2.79a.54.54,0,0,1-.54.54H437.83a7.28,7.28,0,0,0-7.28,7.28v28.43a7.29,7.29,0,0,0,7.28,7.29h49.43a7.3,7.3,0,0,0,7.29-7.29V223.73A7.29,7.29,0,0,0,487.26,216.45Z" fill="none" stroke="#fff" stroke-miterlimit="10"/><circle cx="462.55" cy="238.45" r="14" fill="none" stroke="#fff" stroke-miterlimit="10"/><circle cx="484.55" cy="225.45" r="3" fill="none" stroke="#fff" stroke-miterlimit="10"/><rect x="532.55" y="209.45" width="40" height="50" rx="4.36" fill="none" stroke="#fff" stroke-miterlimit="10"/><line x1="527.55" y1="218.45" x2="537.98" y2="218.45" fill="none" stroke="#fff" stroke-linecap="round" stroke-linejoin="round"/><line x1="527.55" y1="229.11" x2="537.98" y2="229.11" fill="none" stroke="#fff" stroke-linecap="round" stroke-linejoin="round"/><line x1="527.55" y1="239.78" x2="537.98" y2="239.78" fill="none" stroke="#fff" stroke-linecap="round" stroke-linejoin="round"/><line x1="527.55" y1="250.45" x2="537.98" y2="250.45" fill="none" stroke="#fff" stroke-linecap="round" stroke-linejoin="round"/><path d="M552.55,236.45h0a9,9,0,0,1,9,9v1a0,0,0,0,1,0,0h-18a0,0,0,0,1,0,0v-1A9,9,0,0,1,552.55,236.45Z" fill="none" stroke="#fff" stroke-miterlimit="10"/><circle cx="552.55" cy="228.45" r="5" fill="none" stroke="#fff" stroke-miterlimit="10"/><path d="M639.55,225.45v5a15,15,0,0,1-15,15h0a15,15,0,0,1-15-15v-5" fill="none" stroke="#fff" stroke-linecap="round" stroke-linejoin="round"/><rect x="615.55" y="209.45" width="17" height="29" rx="8.5" fill="none" stroke="#fff" stroke-miterlimit="10"/><line x1="615.55" y1="217.95" x2="622.02" y2="217.95" fill="none" stroke="#fff" stroke-miterlimit="10"/><line x1="615.55" y1="224.95" x2="622.02" y2="224.95" fill="none" stroke="#fff" stroke-miterlimit="10"/><line x1="615.55" y1="230.95" x2="622.02" y2="230.95" fill="none" stroke="#fff" stroke-miterlimit="10"/><line x1="626.55" y1="217.95" x2="633.02" y2="217.95" fill="none" stroke="#fff" stroke-miterlimit="10"/><line x1="626.55" y1="224.95" x2="633.02" y2="224.95" fill="none" stroke="#fff" stroke-miterlimit="10"/><line x1="626.55" y1="230.95" x2="633.02" y2="230.95" fill="none" stroke="#fff" stroke-miterlimit="10"/><path d="M616.15,252.45h16.79a4.6,4.6,0,0,1,4.6,4.6v2.4a0,0,0,0,1,0,0h-26a0,0,0,0,1,0,0V257A4.6,4.6,0,0,1,616.15,252.45Z" fill="none" stroke="#fff" stroke-miterlimit="10"/><line x1="624.55" y1="245.45" x2="624.55" y2="252.45" fill="none" stroke="#fff" stroke-miterlimit="10"/><polygon points="679.54 242.45 673.87 259.45 722.39 259.45 716.65 242.45 679.54 242.45" fill="none" stroke="#fff" stroke-miterlimit="10"/><line x1="682.55" y1="259.45" x2="717.9" y2="246.14" fill="none" stroke="#fff" stroke-miterlimit="10"/><line x1="683.77" y1="242.45" x2="693.5" y2="255.32" fill="none" stroke="#fff" stroke-miterlimit="10"/><line x1="715.21" y1="259.45" x2="707.4" y2="250.09" fill="none" stroke="#fff" stroke-miterlimit="10"/><path d="M698.13,251s-17-20.5-11.81-33a12.58,12.58,0,0,1,13.23-7.5s8,0,11,9c0,0,2.7,6.1-3.15,17.05Z" fill="none" stroke="#fff" stroke-miterlimit="10"/><circle cx="697.55" cy="223.45" r="6" fill="none" stroke="#fff" stroke-miterlimit="10"/><path d="M357.49,507.69,412.4,619.86a3.09,3.09,0,0,1-2.78,4.45H393.71a3.1,3.1,0,0,1-2.9-2L349,512.55Z" fill="#999"/><path d="M172.18,507.69,117.27,619.86a3.09,3.09,0,0,0,2.78,4.45H136a3.1,3.1,0,0,0,2.9-2l41.83-109.77Z" fill="#999"/><path d="M273,507.69,227.82,619.86a3.09,3.09,0,0,0,2.78,4.45h9.84a3.1,3.1,0,0,0,2.89-2l38.19-109.77Z" fill="#999"/><path d="M131.61,281.73s88.66,20.86,156.34,3.14c0,0,9.82,141.42,36.32,156.61,0,0,17.91,10.95,60,14.3a125.83,125.83,0,0,0,23-.51c6.12-.63,14.75,1.8,11.52,22.05,0,0-13.37,59.52-100.84,66.81,0,0-81.39,2.43-123.91-52.24l-52.24-59.52s-15.62-29.53-22.38-87.05Z" fill="#b3b3b3"/><path d="M450.38,569.64l-16,11.12-12,8.32L360,529,259,439.11c17.71-10.29,32.45-9.14,40.05-7.35a28.84,28.84,0,0,1,5.59,1.82l49.81,22.12c23.08,6.33,32.8,28.9,32.8,28.9Z" fill="#2f2e41"/><path d="M434.41,580.76l-12,8.32L360,529,259,439.11c17.71-10.29,32.45-9.14,40.05-7.35h0s-13.88,9.51,18.92,26.92l27.79,16.43s20.81,11.28,29.31,43.79C375.06,518.91,391.7,562.71,434.41,580.76Z" opacity="0.2"/><path d="M426.78,586.06s5.38,15.17,13.88,15.17l54.67-10.93s15.79-3.65,4.86-7.29c0,0-8.5-4.86-32.8-4.86,0,0-13.36-3.65-17-8.51Z" fill="#0071f2"/><path d="M375.06,619.45,349,624.31c-18.78-34-45.52-112.47-45.52-112.47l-31.92-.51c-80.43,7.3-60.48-66.82-60.48-66.82L222,433.58l33.31,5,3.66.55c37,12.82,76,38.21,76,38.21C360.48,482.17,375.06,619.45,375.06,619.45Z" fill="#2f2e41"/><path d="M303.46,511.84l-31.92-.51c-80.43,7.3-60.48-66.82-60.48-66.82L222,433.58l33.31,5-.79,2.92s-9.61,7.63,4.45,13.23c0,0,11.63.56,14.05,27.37C273,482.08,276.79,507.49,303.46,511.84Z" opacity="0.2"/><path d="M353.61,623.45s-1.63,17.87,6.87,22.73l24.3,14.58s2.43,7.22,27.94-3.07c0,0,9.72-3.31,0-8.63l-30.37-18.68a37.19,37.19,0,0,1-7.29-10.93Z" fill="#0071f2"/><ellipse cx="281.2" cy="287.7" rx="30.37" ry="24.1" transform="translate(-67.64 488.08) rotate(-75.53)" fill="#f9b499"/><path d="M297.31,338.82C263.7,358,239.57,328.61,239,327.9h9.71c12.15-1.21,10.46-24,10.46-24,8.37,16.1,22,13.64,22,13.64v9.32C280.87,333.1,297.31,338.82,297.31,338.82Z" fill="#f9b499"/><path d="M281.2,317.53v9.32s-14.43-4.53-22.24-14.5l.22-8.47S266.3,320.53,281.2,317.53Z" fill="#f7a48b"/><path d="M233.85,302.55s13.66,15,23.84,15.4c0,0,1.95-8.75,1.21-13.89,0,0-4.95-11.15-1.63-20.91,0,0-.5,8.3,1.4,10.81,0,0-.69-6,4.25-12.06,0,0,3.73-4.86,3.73-8.5,0,0,7.29-1.22,12.15,3.64l8.51-7.29L284.88,277s3.64,3.65,8.5,2.43l1.22-8.5,1.21,8.5a12.81,12.81,0,0,1,9.49,8.4s-2.81,26.22-24.39,29.83v4.72h19.85s6,.65,6.12-9.29a30.06,30.06,0,0,1,.88-6.94c3.13-12.17,10.78-51-16.81-57.09,0,0-40.09-12.15-48.59,34C242.36,283.12,239.93,300.12,233.85,302.55Z" fill="#2f2e41"/><path d="M239,307.15s6.07.09,7.29-15.7c0,0,1.21-15.1,14.58-24.56,0,0-8.23,22.7-1.69,37a40.64,40.64,0,0,1-1.2,13.9s-6.83.39-19-10.54" opacity="0.2"/><path d="M355.62,371.62c-6.07,54.67-19.43,60.75-19.43,60.75-18.23,10.93-31.59-25.6-31.59-25.6l-2.43,22a7.53,7.53,0,0,1,2.43,4.86c-18.22-8.5-41.3,3.65-41.3,3.65-18.23,8.5-31.07,7.28-31.07,7.28H211.06a11.38,11.38,0,0,1-1.4-10.75,56.23,56.23,0,0,0,3.63-14.59c1.82-19.2-2.23-42.69-2.23-42.69-4.86-36.44,2.43-41.3,2.43-41.3,14.58-15.79,25.51-7.29,25.51-7.29h0c.56.71,24.69,30.13,58.3,10.92,15.79-1.21,30.37,43.74,30.37,43.74l6.08-10.94Z" fill="#0071f2"/><path d="M218.35,378.91s6.42,58.44,19.61,65.66a81.65,81.65,0,0,0,25.34-7.34s20.65-12.15,41.3-3.65a7.53,7.53,0,0,0-2.43-4.86l2.43-22s8.7,24.41,22.57,27.43c0,0-10.42-10.34-4.35-28.56l4.86-23.08-1.83-5.17s-17.6,23.39-20-.91c0,0-3.65,1.22-3.65,7.29l3.65,3.65s-13.36,19.51-34.4,31.15c-3.31,1.84-6.51,3.87-9.65,6-5.16,3.5-14.53,7.84-22.77.95C239,425.51,229.28,419,218.35,378.91Z" opacity="0.2"/><path d="M333.76,371.62l-6.08,10.94-1.31,6.23s9,8,25.19,8.79a226,226,0,0,0,4.06-26Z" fill="#0071f2"/><path d="M333.76,371.62l-6.08,10.94-1.31,6.23s9,8,25.19,8.79a226,226,0,0,0,4.06-26Z" fill="#fff" opacity="0.4"/><path d="M270.08,383.46s4.72,22.1,11.12,28.82c0,0,16.11-11.5,24.62-24.86a27.34,27.34,0,0,1-10.94-21.87Z" fill="#0071f2"/><path d="M270.08,383.46s4.72,22.1,11.12,28.82c0,0,16.11-11.5,24.62-24.86a27.34,27.34,0,0,1-10.94-21.87Z" fill="#fff" opacity="0.4"/><path d="M304.6,354.62l-9.72,10.93s1.22,14.58,7.29,18.22c0,0,0-6.07,3.65-7.29,0,0,6.23-1.21,9.79-10.93,0,0,2.35-4.86,6-1.21,0,0,3.45,5.26,4.76.2,0,0,.1-17.21-9.62-12.35a30.25,30.25,0,0,1,8.5-3.65s7.29-2.43,6.08-4.86c0,0-9.72-1.21-23.08,6.08C308.25,349.76,307,349.76,304.6,354.62Z" fill="#f9b499"/><polygon points="328.57 380.96 353.19 377.7 362.91 327.89 342.36 327.89 328.57 380.96" fill="#2f2e41"/><polygon points="328.57 380.96 326.37 378.85 339.33 325.6 362.91 325.6 362.91 327.89 342.36 327.89 328.57 380.96" fill="#2f2e41"/><polygon points="328.57 380.96 326.37 378.85 339.33 325.6 362.91 325.6 362.91 327.89 342.36 327.89 328.57 380.96" opacity="0.2"/><path d="M355.62,365.55s2.43-4.86-3.64-9.72-4.86-7.29-3.65-8.5c0,0-3.64-4.86,1.22-4.86,0,0,0-4.86,4.86-3.65,0,0,1.21-5.25,8.5-.19,0,0,9.81,3.46,6.12,15.8C369,354.43,366.56,361.91,355.62,365.55Z" fill="#f9b499"/><path d="M348.33,347.33c4.38,1.32,8.5,4.57,10.11,8.94a75.53,75.53,0,0,0-10.11-8.94Z" fill="#f7a48b"/><path d="M349.55,342.47c6.1,1.28,11.38,5.62,14.66,10.81-4.49-4-9.3-8-14.66-10.81Z" fill="#f7a48b"/><path d="M354.41,338.82c5,1,11.49,4.1,12.15,9.72-2.38-4.93-7.68-7-12.15-9.72Z" fill="#f7a48b"/><ellipse cx="254.18" cy="290.84" rx="6.68" ry="9.11" fill="#f9b499"/><path d="M318,544.13c-47.37,8.51-86.25-4.86-86.25-4.86-70.38-18.43-91.63-54.78-98.06-75.56-2.89-9.34-2.77-15.55-2.77-15.55-3.65-85-37.66-177.37-37.66-177.37s40.09-14.57,41.3,25.51l-.69,69.25s.09,34.62,26.2,62c0,0,9.72,13.89,94.15,34.89,9.75,2.41,11.66,12.79,11.41,22.24-.41,15.55,5.51,30.74,17,41.22a65.52,65.52,0,0,0,5.36,4.41A82.22,82.22,0,0,0,318,544.13Z" fill="#ccc"/><path d="M318,544.13c-47.37,8.51-86.25-4.86-86.25-4.86-70.38-18.43-91.63-54.78-98.06-75.56C149.28,484.2,191.9,524.5,288,530.27A82.22,82.22,0,0,0,318,544.13Z" opacity="0.2"/><polygon points="710.54 49.45 710.54 48.45 694.54 48.45 694.54 55.45 710.54 55.45 710.54 54.45 713.54 54.45 713.54 49.45 710.54 49.45" fill="none" stroke="#fff" stroke-miterlimit="10"/><text transform="translate(489.17 100.74)" font-size="19" fill="#fff" font-family="Poppins-Regular, Poppins">Permission Per App</text></svg>