<svg width="1440" height="1338" viewBox="0 0 1440 1338" fill="none" xmlns="http://www.w3.org/2000/svg">
<g clip-path="url(#clip0_2230_8087)">
<mask id="mask0_2230_8087" style="mask-type:alpha" maskUnits="userSpaceOnUse" x="0" y="-70" width="1442" height="1408">
<path d="M0 40L1441.18 -70V1228L0 1338L0 40Z" fill="url(#paint0_linear_2230_8087)"/>
</mask>
<g mask="url(#mask0_2230_8087)">
<path d="M0 117.562L1441.18 1V1376.44L0 1493L0 117.562Z" fill="url(#paint1_linear_2230_8087)"/>
<g opacity="0.7">
<rect width="375.331" height="271.006" rx="25.439" transform="matrix(0.866025 0.5 -0.866025 0.5 57.0923 1065.12)" fill="url(#paint2_linear_2230_8087)"/>
<rect width="375.331" height="271.006" rx="25.439" transform="matrix(0.866025 0.5 -0.866025 0.5 57.0925 920)" fill="url(#paint3_linear_2230_8087)"/>
</g>
<g opacity="0.7">
<rect width="375.331" height="271.006" rx="25.439" transform="matrix(-0.866025 0.5 0.866025 0.5 1389.05 161.116)" fill="url(#paint4_linear_2230_8087)"/>
<rect width="375.331" height="271.006" rx="25.439" transform="matrix(-0.866025 0.5 0.866025 0.5 1389.05 16)" fill="url(#paint5_linear_2230_8087)"/>
</g>
</g>
</g>
<defs>
<linearGradient id="paint0_linear_2230_8087" x1="0" y1="-70" x2="1381.6" y2="941.434" gradientUnits="userSpaceOnUse">
<stop stop-color="#2969E6"/>
<stop offset="1" stop-color="#1C2ED0"/>
</linearGradient>
<linearGradient id="paint1_linear_2230_8087" x1="0" y1="1" x2="1436.45" y2="993.383" gradientUnits="userSpaceOnUse">
<stop stop-color="#2969E6"/>
<stop offset="1" stop-color="#1C2ED0"/>
</linearGradient>
<linearGradient id="paint2_linear_2230_8087" x1="104.665" y1="273.443" x2="89.5891" y2="0.587326" gradientUnits="userSpaceOnUse">
<stop stop-color="white" stop-opacity="0.22"/>
<stop offset="1" stop-color="white" stop-opacity="0.09"/>
</linearGradient>
<linearGradient id="paint3_linear_2230_8087" x1="104.665" y1="273.443" x2="89.5891" y2="0.587326" gradientUnits="userSpaceOnUse">
<stop stop-color="white" stop-opacity="0.22"/>
<stop offset="1" stop-color="white" stop-opacity="0.09"/>
</linearGradient>
<linearGradient id="paint4_linear_2230_8087" x1="104.665" y1="273.443" x2="89.5891" y2="0.587326" gradientUnits="userSpaceOnUse">
<stop stop-color="white" stop-opacity="0.22"/>
<stop offset="1" stop-color="white" stop-opacity="0.09"/>
</linearGradient>
<linearGradient id="paint5_linear_2230_8087" x1="104.665" y1="273.443" x2="89.5891" y2="0.587326" gradientUnits="userSpaceOnUse">
<stop stop-color="white" stop-opacity="0.22"/>
<stop offset="1" stop-color="white" stop-opacity="0.09"/>
</linearGradient>
<clipPath id="clip0_2230_8087">
<rect width="1440" height="1338" fill="white"/>
</clipPath>
</defs>
</svg>
